#tb 0: 1/25
0,          0,          0,        1,   138240, 0x99f196ae
0,          1,          1,        1,   138240, 0x45f407de
0,          2,          2,        1,   138240, 0xdaef815b
0,          3,          3,        1,   138240, 0x6812ba5a
0,          4,          4,        1,   138240, 0x1099912d
0,          5,          5,        1,   138240, 0xf58ee932
0,          6,          6,        1,   138240, 0x79df05d8
0,          7,          7,        1,   138240, 0xa0813719
0,          8,          8,        1,   138240, 0xe9c7c5c0
0,          9,          9,        1,   138240, 0xe8c5aba3
0,         10,         10,        1,   138240, 0x7f0ed0b6
0,         11,         11,        1,   138240, 0x1bdcfd20
0,         12,         12,        1,   138240, 0x3b1fc007
0,         13,         13,        1,   138240, 0xf6a9d270
0,         14,         14,        1,   138240, 0x3a2d47d4
0,         15,         15,        1,   138240, 0xbeb9685f
0,         16,         16,        1,   138240, 0x4cb6eb4a
0,         17,         17,        1,   138240, 0xa456dcdf
0,         18,         18,        1,   138240, 0x2933f8e1
0,         19,         19,        1,   138240, 0x27de28e9
0,         20,         20,        1,   138240, 0x557c0e51
0,         21,         21,        1,   138240, 0x6f106540
0,         22,         22,        1,   138240, 0xf78421a4
0,         23,         23,        1,   138240, 0xa94029a7
0,         24,         24,        1,   138240, 0xacfa2b8b
0,         25,         25,        1,   138240, 0x32e7d347
0,         26,         26,        1,   138240, 0xe4c17fac
0,         27,         27,        1,   138240, 0x47e61949
0,         28,         28,        1,   138240, 0xd248e34b
0,         29,         29,        1,   138240, 0xb747dc2c
0,         30,         30,        1,   138240, 0x3a0eaf61
0,         31,         31,        1,   138240, 0x4e254b5f
0,         32,         32,        1,   138240, 0xf434f578
0,         33,         33,        1,   138240, 0xe799308e
0,         34,         34,        1,   138240, 0xb3e67c89
0,         35,         35,        1,   138240, 0xb6ceb379
0,         36,         36,        1,   138240, 0xd70bea99
0,         37,         37,        1,   138240, 0xad0717a8
0,         38,         38,        1,   138240, 0x2b50f085
0,         39,         39,        1,   138240, 0xb334e518
0,         40,         40,        1,   138240, 0xe7311c3a
0,         41,         41,        1,   138240, 0x7c46dc19
0,         42,         42,        1,   138240, 0x18c20dfa
0,         43,         43,        1,   138240, 0x8bc0f6ae
0,         44,         44,        1,   138240, 0x91a8c381
0,         45,         45,        1,   138240, 0x2ba57297
0,         46,         46,        1,   138240, 0x99d982f0
0,         47,         47,        1,   138240, 0x0f84942a
